# xmcd
#
# Track frame offsets: 
#        150
#        38052
#        76518
#        122633
#        172316
#        219072
#        267767
#        316997
#
# Disc length: 4724 seconds
#
# Revision: 1
# Processed by: cddbd v1.5.1PL0 Copyright (c) Steve Scherf et al.
# Submitted via: ExactAudioCopy v0.95b1
#
DISCID=5e127208
DTITLE=Walter Bell - Live in Sedona
DYEAR=2004
DGENRE=Jazz
TTITLE0=Afternoon in Paris
TTITLE1=Rays Spot
TTITLE2=Summertime
TTITLE3=Spring Can Really Hang You Up the Most
TTITLE4=Burells Blues
TTITLE5=Once I Loved
TTITLE6=Little Sunflower
TTITLE7=Comin Home Baby... for Herbie
EXTD=YEAR: 2004
EXTT0=
EXTT1=
EXTT2=
EXTT3=
EXTT4=
EXTT5=
EXTT6=
EXTT7=
PLAYORDER=
